<?xml version="1.0" encoding="utf-8"?>
<!-- Generator: Adobe Illustrator 26.0.1, SVG Export Plug-In . SVG Version: 6.00 Build 0)  -->
<svg version="1.1"
	 id="图层_1" inkscape:version="0.92.3 (2405546, 2018-03-11)" sodipodi:docname="ESP32-S2.svg" xmlns:cc="http://creativecommons.org/ns#" xmlns:dc="http://purl.org/dc/elements/1.1/" xmlns:inkscape="http://www.inkscape.org/namespaces/inkscape" xmlns:rdf="http://www.w3.org/1999/02/22-rdf-syntax-ns#" xmlns:sodipodi="http://sodipodi.sourceforge.net/DTD/sodipodi-0.dtd" xmlns:svg="http://www.w3.org/2000/svg"
	 xmlns="http://www.w3.org/2000/svg" xmlns:xlink="http://www.w3.org/1999/xlink" x="0px" y="0px" viewBox="0 0 194 256"
	 style="enable-background:new 0 0 194 256;" xml:space="preserve">
<style type="text/css">
	.st0{fill:#FFFFFF;stroke:#000000;stroke-width:1.1382;stroke-miterlimit:10;}
	.st1{font-family:'DejaVuSans';}
	.st2{font-size:28.3248px;}
</style>
<sodipodi:namedview  bordercolor="#666666" borderopacity="1" gridtolerance="10" guidetolerance="10" id="namedview4570" inkscape:current-layer="g4567" inkscape:cx="106.22534" inkscape:cy="128" inkscape:pageopacity="0" inkscape:pageshadow="2" inkscape:window-height="996" inkscape:window-maximized="1" inkscape:window-width="1280" inkscape:window-x="640" inkscape:window-y="0" inkscape:zoom="3.0585938" objecttolerance="10" pagecolor="#ffffff" showgrid="false">
	</sodipodi:namedview>
<g id="g4567">
	<g id="g4564" transform="translate(0,-0.32694764)">
		<path id="XMLID_290_" inkscape:connector-curvature="0" class="st0" d="M35.4,194.6h126.8c1.9,0,3.4-1.5,3.4-3.4V64.8
			c0-1.9-1.5-3.4-3.4-3.4H35.4c-1.9,0-3.4,1.5-3.4,3.4v126.4C32,193.1,33.5,194.6,35.4,194.6z"/>
		<circle id="XMLID_245_" cx="52.3" cy="84.9" r="2.6"/>
		<g id="g4562">
			<g id="ESP32_3_">
				<g id="XMLID_202_">
					<g id="XMLID_234_">
						<rect id="XMLID_238_" x="32" y="74.9" width="6.1" height="4"/>
						<rect id="XMLID_237_" x="32" y="83" width="6.1" height="4"/>
						<rect id="XMLID_236_" x="32" y="91.1" width="6.1" height="4"/>
						<rect id="XMLID_235_" x="32" y="99" width="6.1" height="4"/>
					</g>
					<g id="XMLID_229_">
						<rect id="XMLID_233_" x="31.9" y="107.3" width="6.1" height="4"/>
						<rect id="XMLID_232_" x="32" y="115.3" width="6.1" height="4"/>
						<rect id="XMLID_231_" x="32" y="123.4" width="6.1" height="4"/>
						<rect id="XMLID_230_" x="31.9" y="131.4" width="6.1" height="4"/>
					</g>
					<g id="XMLID_224_">
						<rect id="XMLID_228_" x="159.6" y="138.7" width="6.1" height="4"/>
						<rect id="XMLID_227_" x="159.6" y="146.8" width="6.1" height="4"/>
						<rect id="XMLID_226_" x="159.6" y="154.9" width="6.1" height="4"/>
						<rect id="XMLID_225_" x="159.6" y="162.8" width="6.1" height="4"/>
					</g>
					<g id="XMLID_219_">
						<rect id="XMLID_223_" x="32.1" y="138.9" width="6.1" height="4"/>
						<rect id="XMLID_222_" x="32.2" y="147" width="6.1" height="4"/>
						<rect id="XMLID_221_" x="32.2" y="155.1" width="6.1" height="4"/>
						<rect id="XMLID_220_" x="32.1" y="163" width="6.1" height="4"/>
						<rect id="XMLID_5_" x="159.5" y="170.8" width="6.1" height="4"/>
						<rect id="XMLID_4_" x="159.4" y="178.7" width="6.1" height="4"/>
						<rect id="XMLID_3_" x="32" y="171" width="6.1" height="4"/>
						<rect id="XMLID_2_" x="32" y="178.9" width="6.1" height="4"/>
					</g>
					<g id="XMLID_203_">
						<g id="XMLID_214_">
							<rect id="XMLID_218_" x="159.4" y="74.7" width="6.1" height="4"/>
							<rect id="XMLID_217_" x="159.5" y="82.8" width="6.1" height="4"/>
							<rect id="XMLID_216_" x="159.5" y="90.9" width="6.1" height="4"/>
							<rect id="XMLID_215_" x="159.4" y="98.8" width="6.1" height="4"/>
						</g>
						<g id="XMLID_204_">
							<rect id="XMLID_208_" x="159.4" y="107.1" width="6.1" height="4"/>
							<rect id="XMLID_207_" x="159.4" y="115.2" width="6.1" height="4"/>
							<rect id="XMLID_206_" x="159.4" y="123.3" width="6.1" height="4"/>
							<rect id="XMLID_205_" x="159.4" y="131.2" width="6.1" height="4"/>
						</g>
					</g>
				</g>
				<g id="XMLID_1_">
					<g id="g4538">
						<g id="XMLID_197_">
							
								<rect id="XMLID_201_" x="131.7" y="63" transform="matrix(2.029796e-03 -1 1 2.029796e-03 69.5556 199.6072)" width="6.1" height="4"/>
							
								<rect id="XMLID_200_" x="123.6" y="63" transform="matrix(2.029796e-03 -1 1 2.029796e-03 61.3937 191.5997)" width="6.1" height="4"/>
							
								<rect id="XMLID_8_" x="148.2" y="63" transform="matrix(2.029796e-03 -1 1 2.029796e-03 85.9049 216.1379)" width="6.1" height="4"/>
							
								<rect id="XMLID_6_" x="140.2" y="63.1" transform="matrix(2.029796e-03 -1 1 2.029796e-03 77.8425 208.2309)" width="6.1" height="4"/>
							
								<rect id="XMLID_199_" x="115.6" y="63" transform="matrix(2.029796e-03 -1 1 2.029796e-03 53.4234 183.5603)" width="6.1" height="4"/>
							
								<rect id="XMLID_198_" x="107.6" y="63" transform="matrix(2.029796e-03 -1 1 2.029796e-03 45.4452 175.4513)" width="6.1" height="4"/>
						</g>
						<g id="XMLID_192_">
							
								<rect id="XMLID_196_" x="99.5" y="63" transform="matrix(2.029796e-03 -1 1 2.029796e-03 37.3228 167.4349)" width="6.1" height="4"/>
							
								<rect id="XMLID_195_" x="91.2" y="63" transform="matrix(2.029796e-03 -1 1 2.029796e-03 29.034 159.1546)" width="6.1" height="4"/>
							
								<rect id="XMLID_194_" x="83.2" y="63" transform="matrix(2.029796e-03 -1 1 2.029796e-03 21.064 151.0788)" width="6.1" height="4"/>
							
								<rect id="XMLID_193_" x="75.2" y="63" transform="matrix(2.029796e-03 -1 1 2.029796e-03 13.1304 143.161)" width="6.1" height="4"/>
						</g>
						<g id="XMLID_187_">
							
								<rect id="XMLID_191_" x="67.6" y="63" transform="matrix(2.029796e-03 -1 1 2.029796e-03 5.6014 135.5199)" width="6.1" height="4"/>
							
								<rect id="XMLID_190_" x="59.6" y="62.9" transform="matrix(2.029796e-03 -1 1 2.029796e-03 -2.4059 127.4497)" width="6.1" height="4"/>
							
								<rect id="XMLID_189_" x="51.6" y="63" transform="matrix(2.029796e-03 -1 1 2.029796e-03 -10.4763 119.4561)" width="6.1" height="4"/>
							
								<rect id="XMLID_188_" x="43.6" y="63" transform="matrix(2.029796e-03 -1 1 2.029796e-03 -18.4272 111.5382)" width="6.1" height="4"/>
						</g>
					</g>
					<g id="g4558">
						<g id="XMLID_182_">
							
								<rect id="XMLID_186_" x="69" y="189.5" transform="matrix(1.641558e-03 -1 1 1.641558e-03 -119.5845 263.194)" width="6.1" height="4"/>
							
								<rect id="XMLID_185_" x="61" y="189.5" transform="matrix(1.641558e-03 -1 1 1.641558e-03 -127.5952 255.2032)" width="6.1" height="4"/>
							
								<rect id="XMLID_184_" x="52.8" y="189.5" transform="matrix(1.641558e-03 -1 1 1.641558e-03 -135.7677 247.0048)" width="6.1" height="4"/>
							
								<rect id="XMLID_183_" x="45" y="189.5" transform="matrix(1.641558e-03 -1 1 1.641558e-03 -143.5049 239.2017)" width="6.1" height="4"/>
						</g>
						<g id="XMLID_80_">
							<g id="XMLID_113_">
								
									<rect id="XMLID_181_" x="132.9" y="189.5" transform="matrix(1.641558e-03 -1 1 1.641558e-03 -55.7043 327.1148)" width="6.1" height="4"/>
								
									<rect id="XMLID_180_" x="124.9" y="189.5" transform="matrix(1.641558e-03 -1 1 1.641558e-03 -63.7152 319.1239)" width="6.1" height="4"/>
								
									<rect id="XMLID_10_" x="149.1" y="189.5" transform="matrix(1.641558e-03 -1 1 1.641558e-03 -39.6237 343.2853)" width="6.1" height="4"/>
								
									<rect id="XMLID_9_" x="141" y="189.5" transform="matrix(1.641558e-03 -1 1 1.641558e-03 -47.734 335.1939)" width="6.1" height="4"/>
								
									<rect id="XMLID_179_" x="116.9" y="189.5" transform="matrix(1.641558e-03 -1 1 1.641558e-03 -71.6886 311.1266)" width="6.1" height="4"/>
								
									<rect id="XMLID_178_" x="108.9" y="189.4" transform="matrix(1.641558e-03 -1 1 1.641558e-03 -79.6247 303.1224)" width="6.1" height="4"/>
							</g>
							<g id="XMLID_101_">
								
									<rect id="XMLID_112_" x="100.6" y="189.3" transform="matrix(1.641558e-03 -1 1 1.641558e-03 -87.8311 294.7188)" width="6.1" height="4"/>
								
									<rect id="XMLID_111_" x="92.5" y="189.4" transform="matrix(1.641558e-03 -1 1 1.641558e-03 -95.9415 286.6273)" width="6.1" height="4"/>
								
									<rect id="XMLID_109_" x="84.5" y="189.4" transform="matrix(1.641558e-03 -1 1 1.641558e-03 -103.915 278.6299)" width="6.1" height="4"/>
								
									<rect id="XMLID_102_" x="76.6" y="189.3" transform="matrix(1.641558e-03 -1 1 1.641558e-03 -111.8508 270.6259)" width="6.1" height="4"/>
							</g>
						</g>
					</g>
				</g>
			</g>
		</g>
	</g>
	<text id="XMLID_244_" transform="matrix(0.9772 0 0 1 57.2441 127.4297)" class="st1 st2">ESP32</text>
	<text id="XMLID_244_-5" transform="matrix(0.9772 0 0 1 82.8682 156.0854)" class="st1 st2">S3</text>
</g>
</svg>
